<?xml version="1.0" standalone="no"?>
<!DOCTYPE svg PUBLIC "-//W3C//DTD SVG 20010904//EN"
 "http://www.w3.org/TR/2001/REC-SVG-20010904/DTD/svg10.dtd">
<svg version="1.0" xmlns="http://www.w3.org/2000/svg"
 width="1120.000000pt" height="1120.000000pt" viewBox="0 0 1120.000000 1120.000000"
 preserveAspectRatio="xMidYMid meet">

<g transform="translate(0.000000,1120.000000) scale(0.100000,-0.100000)"
fill="#000000" stroke="none">
<path d="M4774 8334 c-97 -23 -164 -69 -197 -134 -26 -53 -214 -483 -460
-1055 -144 -335 -151 -368 -94 -432 20 -22 54 -48 76 -59 23 -10 41 -22 41
-26 0 -5 7 -8 16 -8 8 0 12 -4 9 -10 -3 -6 1 -7 9 -4 9 3 30 1 48 -6 18 -7 60
-18 93 -25 36 -8 49 -13 33 -14 -26 -1 -28 -4 -28 -41 0 -29 4 -40 15 -40 12
0 15 -17 15 -90 0 -53 4 -90 10 -90 15 0 12 -29 -4 -46 -8 -8 -25 -14 -37 -14
-12 0 -20 -2 -18 -4 2 -3 152 -8 333 -11 295 -5 333 -8 366 -25 50 -26 97 -81
111 -132 14 -51 6 -156 -15 -196 -22 -42 -89 -99 -133 -112 -36 -11 -618 -10
-668 1 -17 3 -20 -2 -23 -38 -2 -29 -8 -43 -18 -43 -11 0 -14 -16 -14 -75 0
-41 -3 -74 -7 -74 -20 3 -43 -2 -43 -9 0 -11 52 -28 155 -49 84 -17 167 -18
1300 -18 l1210 0 78 23 c131 38 210 86 256 157 l26 40 0 590 0 590 -91 215
c-51 118 -169 402 -264 630 -95 228 -184 440 -197 470 -42 95 -92 134 -214
164 -58 14 -156 16 -840 15 -639 -1 -785 -3 -835 -15z m445 -160 c33 -4 61
-11 61 -15 0 -5 -7 -9 -15 -9 -12 0 -15 -15 -15 -75 0 -60 3 -75 15 -75 12 0
15 -16 15 -85 0 -61 4 -85 13 -86 6 -1 -4 -5 -23 -9 -54 -11 133 -11 275 0
324 26 772 89 923 130 38 10 31 19 85 -126 l34 -91 -411 -6 c-226 -4 -664 -7
-973 -7 -624 0 -586 -5 -544 64 10 17 42 90 70 161 75 188 92 219 127 226 40
9 287 10 363 3z m1374 -580 l45 -6 46 -119 c25 -65 46 -123 46 -129 0 -9 -72
-11 -278 -9 l-278 4 -60 30 c-48 24 -63 39 -81 75 l-23 45 -127 -7 c-363 -21
-806 -81 -1003 -135 -30 -8 -68 -18 -85 -23 -63 -16 -114 -43 -121 -62 -3 -11
-3 -22 0 -25 3 -4 6 -1 6 5 0 7 5 12 11 12 6 0 9 -6 6 -14 -3 -8 0 -19 6 -24
13 -11 160 -54 174 -51 4 1 15 0 23 -4 36 -13 289 -43 495 -57 167 -12 868
-29 1216 -30 l226 0 33 -86 c38 -97 36 -108 -22 -136 -76 -36 -172 -39 -1293
-36 -830 3 -1099 6 -1126 16 -60 20 -104 55 -107 84 -2 15 21 85 54 165 31 76
88 216 125 311 38 96 74 182 79 193 10 19 36 19 989 19 538 0 999 -3 1024 -6z
m-1776 -290 c-3 -3 -12 -4 -19 -1 -8 3 -5 6 6 6 11 1 17 -2 13 -5z m23 -14
c-8 -5 -24 -9 -35 -9 -16 1 -16 2 5 9 35 11 48 11 30 0z m-63 -6 c-3 -3 -12
-4 -19 -1 -8 3 -5 6 6 6 11 1 17 -2 13 -5z m-19 -13 c17 -2 15 -31 -2 -31 -8
0 -23 -8 -32 -17 -17 -17 -17 -17 -11 -1 3 10 0 24 -8 32 -17 17 -11 24 18 21
12 -1 28 -3 35 -4z m82 -65 c0 -2 -9 -6 -20 -9 -15 -4 -20 0 -20 14 0 17 3 18
20 9 11 -6 20 -12 20 -14z m17 -22 c-3 -3 -12 -4 -19 -1 -8 3 -5 6 6 6 11 1
17 -2 13 -5z m113 -14 c11 -8 7 -9 -15 -4 -37 8 -45 14 -19 14 10 0 26 -5 34
-10z m1663 -699 c48 -11 84 -43 108 -96 17 -36 19 -71 19 -382 0 -355 -2 -378
-43 -421 -39 -42 -77 -56 -154 -56 -65 0 -75 2 -110 30 -70 56 -68 48 -64 449
3 381 4 387 53 432 50 47 114 62 191 44z m-2286 -767 c-3 -3 -12 -4 -19 -1 -8
3 -5 6 6 6 11 1 17 -2 13 -5z m-83 -186 c-5 -8 2 -9 27 -5 24 5 30 4 19 -3
-12 -8 -10 -10 9 -10 13 0 22 -3 18 -6 -3 -3 -32 0 -64 7 -48 11 -54 14 -33
20 14 4 26 7 28 8 2 1 0 -4 -4 -11z m139 -35 c-7 -2 -19 -2 -25 0 -7 3 -2 5
12 5 14 0 19 -2 13 -5z"/>
<path d="M5238 7833 c6 -2 18 -2 25 0 6 3 1 5 -13 5 -14 0 -19 -2 -12 -5z"/>
<path d="M4228 6573 c6 -2 18 -2 25 0 6 3 1 5 -13 5 -14 0 -19 -2 -12 -5z"/>
<path d="M4283 6563 c9 -2 23 -2 30 0 6 3 -1 5 -18 5 -16 0 -22 -2 -12 -5z"/>
<path d="M4270 6220 c8 -5 22 -9 30 -9 10 0 8 3 -5 9 -27 12 -43 12 -25 0z"/>
<path d="M4245 6190 c-3 -6 1 -7 9 -4 18 7 21 14 7 14 -6 0 -13 -4 -16 -10z"/>
<path d="M4374 6058 c-47 -22 -58 -95 -20 -133 33 -33 76 -37 334 -33 221 3
224 3 243 27 28 34 25 96 -6 126 l-24 25 -253 -1 c-152 0 -261 -4 -274 -11z"/>
<path d="M4200 5822 c0 -12 19 -26 26 -19 2 2 -2 10 -11 17 -9 8 -15 8 -15 2z"/>
<path d="M4246 5785 c4 -8 11 -15 16 -15 6 0 5 6 -2 15 -7 8 -14 15 -16 15 -2
0 -1 -7 2 -15z"/>
<path d="M4130 5546 c0 -2 7 -7 16 -10 8 -3 12 -2 9 4 -6 10 -25 14 -25 6z"/>
<path d="M7175 5447 c-49 -66 -162 -113 -336 -141 -19 -4 -582 -7 -1250 -7
-1043 -1 -1225 1 -1289 14 -129 26 -231 75 -283 136 -14 17 -28 31 -31 31 -3
0 -6 -69 -6 -152 0 -127 4 -160 19 -194 36 -80 129 -131 289 -159 126 -22
2532 -22 2647 0 143 27 254 97 275 175 12 41 14 327 3 333 -5 2 -21 -14 -38
-36z"/>
<path d="M5765 4679 c-60 -4 -135 -12 -165 -16 l-55 -8 -3 -697 c-2 -656 -1
-698 15 -707 58 -30 452 -41 613 -17 466 71 710 347 687 779 -11 205 -63 334
-187 458 -59 60 -93 85 -160 117 -179 87 -415 115 -745 91z m484 -279 c120
-40 207 -122 252 -237 19 -49 23 -77 23 -188 1 -112 -2 -140 -23 -204 -43
-129 -135 -219 -269 -262 -79 -25 -309 -38 -355 -20 l-27 11 2 457 3 458 35 7
c19 4 94 5 165 4 101 -3 144 -9 194 -26z"/>
<path d="M7290 4684 c-19 -2 -76 -9 -127 -14 -50 -5 -98 -13 -107 -16 -14 -6
-16 -76 -16 -700 l0 -694 24 -10 c43 -16 212 -30 364 -30 228 0 387 33 508
106 83 49 120 89 157 164 30 62 32 71 32 180 0 134 -15 178 -86 255 -43 46
-141 105 -176 105 -11 0 3 14 32 34 95 64 141 160 133 280 -11 167 -123 278
-324 321 -67 15 -344 27 -414 19z m247 -254 c88 -11 142 -37 167 -81 25 -42
24 -113 -2 -148 -48 -66 -114 -85 -267 -79 l-80 3 0 150 0 150 30 6 c44 10 72
9 152 -1z m83 -570 c144 -32 213 -113 189 -221 -14 -60 -35 -86 -94 -114 -59
-29 -164 -43 -282 -37 l-73 4 0 189 0 189 108 0 c59 0 127 -5 152 -10z"/>
<path d="M3440 4364 c-70 -14 -103 -28 -144 -59 l-46 -35 -6 28 c-3 15 -7 33
-10 40 -2 8 -28 12 -84 12 l-80 0 2 -487 3 -488 97 -3 96 -3 6 93 c4 51 5 215
4 363 -3 305 -3 307 72 345 90 46 194 17 235 -65 19 -37 20 -64 23 -387 l3
-347 35 -7 c26 -5 124 -1 162 6 1 0 2 165 2 368 l0 367 26 29 c35 38 82 56
143 56 67 0 98 -16 124 -64 21 -39 22 -54 25 -391 2 -236 7 -353 14 -362 8
-10 35 -13 97 -11 l86 3 3 370 c2 345 1 374 -17 435 -35 114 -103 172 -224
191 -114 19 -253 -22 -311 -92 l-27 -32 -34 40 c-19 23 -56 50 -84 62 -51 21
-145 34 -191 25z"/>
<path d="M4498 4353 c-25 -6 -23 -16 23 -118 62 -138 269 -641 296 -720 28
-82 25 -112 -17 -178 -41 -65 -80 -87 -157 -87 -60 0 -61 -1 -72 -31 -6 -18
-11 -49 -11 -70 0 -34 3 -39 38 -51 20 -7 71 -13 112 -13 167 0 227 75 379
463 174 445 213 544 261 661 49 117 51 126 34 138 -18 13 -105 16 -158 4 -26
-5 -33 -17 -68 -106 -21 -55 -75 -206 -118 -335 -44 -129 -83 -242 -86 -250
-3 -8 -41 84 -85 205 -104 290 -171 468 -178 477 -7 8 -167 17 -193 11z"/>
<path d="M3408 2952 c-42 -5 -78 -55 -78 -109 0 -116 151 -145 196 -36 16 38
6 101 -20 122 -20 16 -66 27 -98 23z m50 -48 c19 -13 23 -23 20 -61 -4 -57
-29 -79 -68 -60 -32 16 -41 88 -14 118 21 23 33 24 62 3z"/>
<path d="M3598 2953 l-28 -4 0 -105 0 -104 25 0 c23 0 25 4 25 40 0 33 3 40
20 40 14 0 22 -11 30 -40 9 -33 15 -40 35 -40 29 0 30 5 10 53 -13 31 -13 40
1 72 14 33 14 39 -1 61 -9 14 -25 24 -39 24 -14 0 -30 2 -38 3 -7 2 -25 2 -40
0z m77 -43 c12 -20 -6 -50 -31 -50 -20 0 -24 5 -24 30 0 25 4 30 24 30 14 0
28 -5 31 -10z"/>
<path d="M4784 2946 c-2 -6 -13 -47 -25 -91 -12 -44 -25 -88 -31 -97 -7 -15
-4 -18 17 -18 17 0 29 8 37 25 8 18 19 25 40 25 21 0 32 -7 40 -25 7 -16 19
-25 35 -25 27 0 27 7 -16 134 -25 78 -27 80 -59 81 -19 1 -36 -3 -38 -9z m44
-114 c-29 -5 -31 2 -17 45 l13 38 11 -40 c11 -37 10 -40 -7 -43z"/>
<path d="M5473 2949 c-45 -13 -83 -62 -83 -108 0 -70 48 -104 141 -99 48 3 54
6 57 27 2 13 1 39 -3 57 -5 30 -10 34 -35 34 -23 0 -30 -5 -30 -20 0 -11 5
-20 10 -20 6 0 10 -9 10 -20 0 -16 -7 -20 -30 -20 -64 0 -91 70 -45 116 21 21
34 25 68 22 32 -2 43 1 45 13 2 11 -7 18 -29 23 -36 7 -34 7 -76 -5z"/>
<path d="M6107 2953 l-28 -4 3 -102 3 -102 73 -3 c67 -3 72 -1 72 18 0 17 -6
20 -50 20 -47 0 -50 2 -50 25 0 23 4 25 45 25 40 0 45 2 45 23 0 21 -4 24 -42
23 -37 -1 -43 2 -46 22 -3 20 1 22 42 22 34 0 46 4 46 15 0 8 -1 15 -2 16 -22
4 -90 6 -111 2z"/>
<path d="M6751 2947 c-57 -29 -53 -86 7 -115 20 -9 38 -25 40 -35 3 -14 -4
-17 -43 -17 -39 0 -46 -3 -43 -17 4 -25 81 -30 114 -8 48 31 28 81 -52 132
-16 10 -17 13 -4 22 8 5 26 7 41 4 37 -7 49 24 13 37 -33 13 -44 12 -73 -3z"/>
<path d="M6939 2942 c-49 -24 -75 -82 -61 -131 29 -94 175 -96 203 -1 29 97
-55 175 -142 132z m68 -37 c44 -31 36 -109 -12 -121 -54 -13 -86 61 -49 114
18 26 32 27 61 7z"/>
<path d="M7804 2945 c-38 -20 -54 -52 -54 -111 0 -62 34 -94 101 -94 41 0 51
4 73 31 45 53 46 104 3 154 -28 33 -81 41 -123 20z m78 -42 c39 -35 13 -123
-37 -123 -32 0 -45 19 -45 66 0 33 5 47 22 58 28 20 37 20 60 -1z"/>
<path d="M3000 2930 c-11 -11 -20 -26 -20 -33 0 -23 32 -59 67 -73 45 -19 37
-38 -18 -44 -30 -3 -44 -10 -44 -20 0 -11 14 -16 50 -18 59 -3 88 13 88 51 0
34 -17 54 -60 72 -54 23 -41 52 21 45 17 -2 35 15 36 33 0 4 -22 7 -50 7 -37
0 -55 -5 -70 -20z"/>
<path d="M3140 2936 c0 -7 14 -16 30 -19 l30 -6 0 -86 c0 -84 0 -85 25 -85 24
0 24 2 27 88 3 78 5 87 22 84 28 -5 46 5 40 23 -8 21 -174 22 -174 1z"/>
<path d="M3784 2862 c-17 -48 -34 -95 -38 -104 -7 -15 -3 -18 23 -18 26 0 31
4 31 25 0 23 4 25 44 25 38 0 45 -3 50 -25 5 -18 13 -25 31 -25 14 0 25 1 25
3 0 2 -6 23 -14 48 -8 24 -22 70 -31 102 -15 56 -16 57 -53 57 l-37 0 -31 -88z
m81 1 c6 -31 5 -33 -20 -33 -21 0 -26 4 -21 16 3 9 9 27 12 41 8 30 19 20 29
-24z"/>
<path d="M4024 2931 c-42 -25 -61 -80 -44 -122 22 -51 55 -69 127 -69 l64 0
-3 58 -3 57 -37 3 c-29 2 -38 0 -38 -13 0 -8 7 -18 15 -21 8 -4 15 -15 15 -25
0 -15 -7 -19 -34 -19 -37 0 -51 12 -61 52 -6 22 -1 33 24 59 28 28 36 31 71
25 36 -6 40 -4 40 14 0 17 -7 20 -52 20 -35 0 -64 -7 -84 -19z"/>
<path d="M4213 2845 l-1 -105 69 0 c62 0 69 2 69 20 0 17 -7 20 -45 20 -41 0
-45 2 -45 25 0 23 4 25 45 25 38 0 45 3 45 20 0 17 -7 20 -45 20 -41 0 -45 2
-45 25 0 23 4 25 45 25 33 0 45 4 45 15 0 12 -14 15 -67 15 l-68 0 -2 -105z"/>
<path d="M4476 2923 c-3 -16 -8 -63 -12 -105 -6 -73 -5 -78 14 -78 21 0 31 34
33 120 l1 45 9 -40 c24 -111 31 -125 55 -125 20 0 26 10 48 78 l25 77 1 -77
c0 -77 0 -78 26 -78 26 0 27 1 20 53 -3 28 -6 76 -6 105 l0 52 -35 0 c-36 0
-41 -8 -61 -108 -4 -18 -10 -32 -14 -32 -4 0 -12 32 -19 70 l-13 70 -33 0
c-28 0 -34 -4 -39 -27z"/>
<path d="M4960 2845 l0 -105 26 0 26 0 -4 75 c-3 41 -3 75 -1 75 2 0 19 -34
38 -75 31 -70 36 -75 64 -75 l31 0 0 105 0 105 -25 0 c-24 0 -25 -3 -26 -62
l0 -63 -32 63 c-29 57 -34 62 -64 62 l-33 0 0 -105z"/>
<path d="M5205 2858 c-15 -51 -30 -99 -33 -105 -2 -8 5 -13 21 -13 18 0 27 7
31 25 5 21 12 25 41 25 29 0 37 -5 45 -25 7 -18 17 -25 35 -25 14 0 25 1 25 3
0 2 -6 23 -14 48 -8 24 -22 70 -31 102 -15 57 -16 57 -54 57 l-38 0 -28 -92z
m84 -10 c1 -12 -6 -18 -19 -18 -23 0 -27 29 -8 63 l12 22 7 -25 c4 -14 7 -33
8 -42z"/>
<path d="M5637 2938 c-2 -7 -5 -55 -6 -105 l-2 -93 70 0 c64 0 71 2 71 20 0
17 -7 20 -45 20 -42 0 -45 2 -45 26 0 24 3 25 43 22 37 -2 42 0 45 20 3 20 -1
22 -42 22 -42 0 -46 2 -46 25 0 23 4 25 45 25 33 0 45 4 45 15 0 20 -125 22
-133 3z"/>
<path d="M5820 2906 c0 -23 -3 -71 -7 -105 -6 -62 -6 -63 18 -59 22 3 24 8 29
73 l5 70 19 -72 c16 -64 21 -73 41 -73 21 0 26 9 42 71 20 77 30 70 32 -23 1
-41 4 -48 21 -48 18 0 20 7 20 83 0 115 -5 127 -46 127 -19 0 -34 -5 -34 -11
0 -6 -7 -36 -16 -67 -19 -63 -26 -57 -39 32 -7 46 -8 46 -46 46 l-39 0 0 -44z"/>
<path d="M6270 2845 c0 -98 1 -105 20 -105 18 0 20 7 21 73 l0 72 37 -72 c29
-58 41 -73 59 -73 29 0 35 21 31 124 -3 82 -4 86 -26 86 -16 0 -23 -5 -21 -17
1 -10 1 -36 0 -58 l-2 -40 -30 58 c-26 50 -33 57 -59 57 l-30 0 0 -105z"/>
<path d="M6460 2936 c0 -9 12 -16 28 -18 27 -3 27 -3 30 -90 3 -86 3 -88 27
-88 24 0 24 2 27 87 3 86 4 88 28 88 15 0 26 7 28 18 3 15 -6 17 -82 17 -68 0
-86 -3 -86 -14z"/>
<path d="M7120 2855 c0 -52 -1 -98 -2 -102 -2 -5 27 -9 65 -11 62 -3 67 -1 67
18 0 17 -6 20 -40 20 l-40 0 0 85 c0 84 0 85 -25 85 -25 0 -25 0 -25 -95z"/>
<path d="M7280 2866 c0 -79 2 -86 26 -105 37 -29 89 -27 119 4 22 22 25 32 25
105 0 79 0 80 -25 80 -24 0 -25 -2 -25 -74 0 -79 -13 -103 -49 -91 -16 5 -20
19 -26 85 -6 69 -10 80 -26 80 -17 0 -19 -8 -19 -84z"/>
<path d="M7470 2936 c0 -9 12 -16 28 -18 27 -3 27 -3 30 -90 3 -86 3 -88 27
-88 24 0 24 2 27 88 l3 87 33 3 c20 2 32 9 32 18 0 11 -18 14 -90 14 -71 0
-90 -3 -90 -14z"/>
<path d="M7670 2845 c0 -98 1 -105 20 -105 18 0 20 7 21 58 0 31 1 78 2 105 3
43 1 47 -20 47 -23 0 -23 -2 -23 -105z"/>
<path d="M7990 2844 c0 -104 0 -105 23 -102 19 3 23 10 27 66 l5 64 32 -66
c30 -60 36 -66 63 -66 l30 0 0 105 0 105 -25 0 c-24 0 -25 -2 -25 -67 l0 -68
-32 68 c-29 63 -33 67 -65 67 l-33 0 0 -106z"/>
</g>
</svg>
